<svg width="600" height="144" viewBox="0 0 600 144" fill="none" xmlns="http://www.w3.org/2000/svg">
<path d="M35.2997 4.28537L0.531582 8.40902L0.289014 11.8858L0.0464462 15.4435L3.11897 14.9584C4.81695 14.7158 21.635 12.6135 40.4744 10.4304L74.8382 6.38762L114.862 10.8347C136.936 13.2604 156.503 15.4435 158.443 15.7669L161.839 16.1712V13.3412C161.839 11.7241 161.597 10.4304 161.354 10.4304C161.112 10.4304 141.949 8.0856 118.824 5.17478C95.78 2.26397 75.3234 0 73.4637 0C71.604 0.080856 54.4625 1.94054 35.2997 4.28537Z" fill="#040404"/>
<path d="M51.8751 12.5326C43.6278 13.5029 28.6695 15.3626 18.4816 16.5754L0.12729 18.7585V21.831C0.12729 24.2567 0.450714 24.9844 1.5827 24.9844C2.3104 24.9844 19.1285 23.1247 38.9382 20.8608L74.9191 16.6563L161.435 26.1973L161.678 23.9333C161.839 22.6396 161.758 21.4268 161.516 21.1842C160.626 20.2948 78.6385 10.4303 72.8977 10.5112C69.5826 10.5921 60.1224 11.4815 51.8751 12.5326Z" fill="#040404"/>
<path d="M72.4934 20.6182C69.9869 21.0225 1.98698 29.8358 1.01671 29.8358C0.369858 29.8358 0.12729 42.4494 0.12729 72.2852C0.12729 95.6526 0.450714 114.735 0.774138 114.735C2.14869 114.735 21.7158 117.16 23.333 117.565L25.1927 117.969V83.1199L37.5636 83.5242C44.2747 83.8476 54.1391 84.2519 59.3947 84.4945L68.8549 84.8988V58.8631L65.0547 59.2674C62.8716 59.51 53.088 59.9143 43.2235 60.1568L25.1927 60.7228V54.5778C25.1927 51.1818 25.2735 48.4327 25.4352 48.4327C26.3246 48.1901 69.8252 45.2793 71.9274 45.1985H74.5148V83.9285C74.5148 105.274 74.7574 122.901 75.1617 123.063C75.7277 123.467 96.0225 121.527 99.4185 120.799L101.197 120.395V84.2519L109.121 83.7668C113.407 83.4434 121.088 83.2008 126.101 83.2008H135.157V117.16L137.017 116.837C137.987 116.594 142.596 116.028 147.285 115.543C151.975 115.058 157.15 114.492 158.848 114.249L161.839 113.764V29.8358L160.06 29.5124C159.009 29.2698 153.996 28.7038 148.902 28.2187C143.808 27.7336 138.634 27.1676 137.421 26.925L135.157 26.4399V60.5611H125.616C120.279 60.5611 112.679 60.3185 108.636 60.076L101.197 59.51V23.3673L99.4185 23.0439C98.3673 22.8013 93.5968 22.2354 88.6646 21.7502C83.8133 21.2651 78.4768 20.7799 76.9405 20.6182C75.4042 20.4565 73.3828 20.4565 72.4934 20.6182Z" fill="#040404"/>
<path d="M0.289014 121.284L0.531582 124.842L74.1105 133.574L104.432 129.774C121.088 127.752 140.817 125.246 148.336 124.276L161.839 122.578V120.233C161.839 118.05 161.678 117.969 158.039 117.969C155.937 117.969 136.289 119.99 114.377 122.416L74.5957 126.944L40.3936 122.82C21.5541 120.637 4.81695 118.535 3.11897 118.292L0.0464462 117.807L0.289014 121.284Z" fill="#040404"/>
<path d="M118.177 132.199C97.4779 134.544 78.315 136.485 75.4851 136.566C72.6551 136.566 55.0285 134.787 36.2699 132.523C17.5113 130.34 1.66355 128.48 1.17841 128.48C0.531567 128.48 0.127287 129.612 0.127287 131.633C0.127287 135.434 -4.40065 134.544 40.5553 139.719L75.7277 143.843L118.581 138.345L161.435 132.927L161.678 130.259C161.92 127.752 161.839 127.672 158.848 127.752C157.15 127.833 138.876 129.774 118.177 132.199Z" fill="#040404"/>
<path d="M217.492 46.4419H197.604V66.8217H185.271V15.6613H219.495V25.1836H197.604V36.9547H217.492V46.4419Z" fill="#040404"/>
<path d="M256.354 45.1418H236.958V57.3346H259.868V66.8217H224.625V15.6613H259.938V25.1836H236.958V35.9709H256.354V45.1418Z" fill="#040404"/>
<path d="M283.902 48.761H277.226V66.8217H264.892V15.6613H285.026C291.093 15.6613 295.837 17.0083 299.257 19.7022C302.677 22.3961 304.387 26.2026 304.387 31.1219C304.387 34.6825 303.661 37.6341 302.209 39.9766C300.78 42.3191 298.531 44.2165 295.462 45.6689L306.144 66.2947V66.8217H292.932L283.902 48.761ZM277.226 39.2387H285.026C287.369 39.2387 289.126 38.6296 290.297 37.4115C291.492 36.17 292.089 34.4483 292.089 32.2463C292.089 30.0443 291.492 28.3226 290.297 27.0811C289.102 25.8161 287.345 25.1836 285.026 25.1836H277.226V39.2387Z" fill="#040404"/>
<path d="M330.846 48.761H324.17V66.8217H311.836V15.6613H331.97C338.037 15.6613 342.781 17.0083 346.201 19.7022C349.621 22.3961 351.331 26.2026 351.331 31.1219C351.331 34.6825 350.605 37.6341 349.152 39.9766C347.724 42.3191 345.475 44.2165 342.406 45.6689L353.088 66.2947V66.8217H339.876L330.846 48.761ZM324.17 39.2387H331.97C334.313 39.2387 336.07 38.6296 337.241 37.4115C338.436 36.17 339.033 34.4483 339.033 32.2463C339.033 30.0443 338.436 28.3226 337.241 27.0811C336.046 25.8161 334.289 25.1836 331.97 25.1836H324.17V39.2387Z" fill="#040404"/>
<path d="M390.509 45.1418H371.114V57.3346H394.023V66.8217H358.78V15.6613H394.094V25.1836H371.114V35.9709H390.509V45.1418Z" fill="#040404"/>
<path d="M439.913 25.1836H424.558V66.8217H412.225V25.1836H397.15V15.6613H439.913V25.1836Z" fill="#040404"/>
<path d="M476.878 45.1418H457.482V57.3346H480.392V66.8217H445.148V15.6613H480.462V25.1836H457.482V35.9709H476.878V45.1418Z" fill="#040404"/>
<path d="M504.426 48.761H497.749V66.8217H485.416V15.6613H505.55C511.617 15.6613 516.361 17.0083 519.781 19.7022C523.201 22.3961 524.911 26.2026 524.911 31.1219C524.911 34.6825 524.185 37.6341 522.732 39.9766C521.303 42.3191 519.055 44.2165 515.986 45.6689L526.668 66.2947V66.8217H513.456L504.426 48.761ZM497.749 39.2387H505.55C507.893 39.2387 509.649 38.6296 510.821 37.4115C512.015 36.17 512.613 34.4483 512.613 32.2463C512.613 30.0443 512.015 28.3226 510.821 27.0811C509.626 25.8161 507.869 25.1836 505.55 25.1836H497.749V39.2387Z" fill="#040404"/>
<path d="M545.502 66.8217H533.203V15.6613H545.502V66.8217Z" fill="#040404"/>
<path d="M583.766 57.2643H566.865L563.914 66.8217H550.737L569.501 15.6613H581.096L600 66.8217H586.753L583.766 57.2643ZM569.817 47.742H580.815L575.298 29.9975L569.817 47.742Z" fill="#040404"/>
<path d="M227.647 128.503H215.384V107.14H197.217V128.503H184.884V77.3429H197.217V97.6525H215.384V77.3429H227.647V128.503Z" fill="#040404"/>
<path d="M267.212 106.823H247.816V119.016H270.725V128.503H235.482V77.3429H270.796V86.8652H247.816V97.6525H267.212V106.823Z" fill="#040404"/>
<path d="M294.759 110.443H288.083V128.503H275.75V77.3429H295.884C301.951 77.3429 306.695 78.6899 310.115 81.3837C313.535 84.0776 315.245 87.8842 315.245 92.8035C315.245 96.3641 314.519 99.3156 313.066 101.658C311.637 104.001 309.388 105.898 306.32 107.35L317.002 127.976V128.503H303.79L294.759 110.443ZM288.083 100.92H295.884C298.226 100.92 299.983 100.311 301.155 99.0931C302.349 97.8516 302.947 96.1298 302.947 93.9279C302.947 91.7259 302.349 90.0042 301.155 88.7626C299.96 87.4977 298.203 86.8652 295.884 86.8652H288.083V100.92Z" fill="#040404"/>
<path d="M365.421 128.503H353.158L335.027 96.6686V128.503H322.694V77.3429H335.027L353.123 109.178V77.3429H365.421V128.503Z" fill="#040404"/>
<path d="M402.913 118.946H386.012L383.06 128.503H369.884L388.647 77.3429H400.243L419.147 128.503H405.9L402.913 118.946ZM388.963 109.424H399.961L394.445 91.6791L388.963 109.424Z" fill="#040404"/>
<path d="M465.634 128.503H453.371L435.24 96.6686V128.503H422.906V77.3429H435.24L453.336 109.178V77.3429H465.634V128.503Z" fill="#040404"/>
<path d="M473.434 128.503V77.3429H489.914C494.435 77.3429 498.499 78.3736 502.107 80.435C505.714 82.473 508.525 85.366 510.54 89.114C512.578 92.8386 513.608 97.02 513.632 101.658V104.012C513.632 108.697 512.636 112.902 510.645 116.627C508.677 120.328 505.89 123.233 502.282 125.341C498.698 127.426 494.693 128.48 490.265 128.503H473.434ZM485.768 86.8652V119.016H490.054C493.592 119.016 496.309 117.763 498.206 115.256C500.104 112.727 501.052 108.978 501.052 104.012V101.799C501.052 96.856 500.104 93.1314 498.206 90.6249C496.309 88.1185 493.545 86.8652 489.914 86.8652H485.768Z" fill="#040404"/>
<path d="M551.686 106.823H532.29V119.016H555.2V128.503H519.956V77.3429H555.27V86.8652H532.29V97.6525H551.686V106.823Z" fill="#040404"/>
<path d="M574.068 119.016H598.524V128.503H558.678V122.003L583.064 86.8652H558.538V77.3429H598.278V83.6677L574.068 119.016Z" fill="#040404"/>
</svg>
