<svg width="159" height="111" viewBox="0 0 159 111" fill="none" xmlns="http://www.w3.org/2000/svg">
<g clip-path="url(#clip0)">
<rect width="159" height="111" fill="white"/>
<path d="M75.0901 0.135026C68.071 0.945424 63.3672 1.49797 56.8994 2.27153C52.661 2.77496 49.0841 3.19244 48.9739 3.19244C48.7411 3.19244 48.6799 3.47485 48.5819 4.96058L48.5207 5.91832L49.0351 5.84465C50.3826 5.64819 58.3326 4.69045 67.2871 3.62219L77.1848 2.45571L92.5213 4.17474C100.949 5.1202 108.25 5.94288 108.715 6.00427C109.193 6.07795 109.781 6.13934 110.05 6.13934H110.528L110.467 5.15704C110.43 4.61677 110.381 4.1379 110.332 4.10107C110.246 4.01511 88.6259 1.31379 82.5011 0.626176C77.246 0.0367954 76.4498 -0.0245983 75.0901 0.135026Z" fill="black"/>
<path d="M73.4976 4.24843C72.5177 4.34666 69.4308 4.70274 66.6379 5.03427C63.8449 5.37808 58.7491 5.97973 55.307 6.39721C51.8771 6.80241 48.9249 7.1585 48.7657 7.19533C48.4839 7.25673 48.4717 7.28128 48.5452 8.20219C48.6309 9.44235 48.6922 9.57741 49.1699 9.57741C49.6476 9.57741 61.199 8.28814 70.472 7.19533L77.1848 6.39721L93.7463 8.23903C102.86 9.24588 110.32 10.0686 110.344 10.0686C110.357 10.0686 110.369 9.62653 110.369 9.09854V8.12852L109.61 7.99345C106.682 7.46546 88.9934 5.29212 80.0022 4.35894C76.6703 4.01513 76.0456 4.00285 73.4976 4.24843Z" fill="black"/>
<path d="M73.8039 8.23901C70.4475 8.7056 50.7501 11.2596 49.6967 11.3701C49.1209 11.4315 48.8637 11.5052 48.8147 11.6525C48.5452 12.3033 48.484 38.4325 48.7412 42.73L48.8147 44.0193L49.6109 44.1053C52.4406 44.4368 56.6544 44.9893 57.3649 45.1121L58.1856 45.2717V31.9002L60.4886 31.9739C61.7503 32.023 65.1802 32.1703 68.1078 32.3054C71.0355 32.4282 73.7549 32.5387 74.1469 32.5387H74.8451V22.5683L74.4531 22.642C73.7059 22.7771 70.1413 22.949 65.6579 23.084C63.1957 23.1454 60.5131 23.2437 59.6923 23.2805L58.1856 23.3542V21.0089C58.1856 19.2408 58.2224 18.6391 58.3449 18.6023C58.5409 18.5286 75.9353 17.313 76.7561 17.313H77.0255L77.0868 32.0107C77.1113 40.1024 77.1848 46.8557 77.2338 47.0153C77.3318 47.2977 77.344 47.2977 78.4465 47.2241C80.6147 47.0644 84.5958 46.6592 85.8943 46.4628L87.2172 46.2663L87.2417 39.3043L87.2785 32.3545L89.2997 32.2071C90.4144 32.1335 93.3175 32.023 95.7674 31.9739L100.202 31.8879V38.4079C100.202 44.0316 100.226 44.9402 100.386 44.9402C100.471 44.9402 100.827 44.8911 101.145 44.8174C101.464 44.756 103.252 44.535 105.102 44.3263C106.951 44.1298 108.924 43.8965 109.487 43.8229L110.491 43.6755V11.456L109.61 11.3087C109.12 11.235 107.098 11.0017 105.114 10.8053C103.142 10.5965 101.292 10.3755 101.01 10.3141C100.741 10.2527 100.435 10.1913 100.361 10.1913C100.239 10.1913 100.202 11.5788 100.202 16.6991V23.2068H96.3799C92.901 23.2068 89.5447 23.084 87.8665 22.8876L87.2172 22.8262V8.98801L86.8865 8.91434C85.784 8.68105 77.7238 7.84609 76.8663 7.87065C76.5968 7.88293 75.2248 8.05483 73.8039 8.23901Z" fill="black"/>
<path d="M48.5819 46.2541C48.6677 47.7153 48.7044 47.8749 49.0351 47.9486C49.6231 48.0713 76.413 51.2024 76.9153 51.2024C77.4053 51.2024 109.389 47.2364 110.161 47.0768C110.467 47.0154 110.491 46.9663 110.491 46.3523C110.491 45.4314 110.332 45.3086 109.193 45.3086C107.699 45.3086 97.0659 46.426 81.2761 48.2432L77.1113 48.7221L68.4753 47.6907C56.1767 46.2172 48.9249 45.3209 48.7044 45.2349C48.5452 45.1736 48.5329 45.3086 48.5819 46.2541Z" fill="black"/>
<path d="M108.654 49.0782C108.421 49.1027 106.486 49.3238 104.367 49.5448C102.248 49.7781 96.8455 50.3797 92.3621 50.8832C79.5612 52.3198 77.6871 52.4794 75.7639 52.3075C72.971 52.0742 67.6914 51.4848 58.4674 50.4043C53.5308 49.8272 49.3292 49.3606 49.1332 49.3606C48.7167 49.3606 48.6555 49.4957 48.5452 50.478C48.4962 50.9814 48.5207 51.2515 48.631 51.3866C49.0107 51.8409 50.3582 52.0496 61.0643 53.2898C65.1802 53.7687 70.5578 54.3949 73.02 54.6773L77.5033 55.2053L82.6359 54.5422C85.4656 54.1861 92.8398 53.2407 99.0381 52.4548L110.308 51.0182L110.345 50.1096C110.369 49.4588 110.332 49.1641 110.222 49.1027C110.063 48.9922 109.45 48.9922 108.654 49.0782Z" fill="black"/>
<path d="M0.14697 77.4421L0.183719 87.2406L2.53565 87.2774L4.89982 87.302V79.4435H12.4946V75.7599H4.89982V71.3396H13.2296V67.6559H0.122471L0.14697 77.4421Z" fill="black"/>
<path d="M15.214 77.4421L15.2508 87.2406H28.7253L28.7988 83.6183H19.9669V78.9524H27.4514L27.3779 75.4529L23.6785 75.4161L19.9669 75.3916V71.3396H28.7866V67.6559H15.1895L15.214 77.4421Z" fill="black"/>
<path d="M30.624 87.302H35.4014V80.3031H37.9125L39.6642 83.8025L41.4037 87.302H43.9148C45.7155 87.302 46.426 87.2651 46.426 87.1669C46.426 87.0809 45.5073 85.2514 44.3926 83.0781C43.1921 80.7574 42.4081 79.1243 42.4939 79.0997C42.9349 78.9524 44.1843 77.9701 44.5886 77.4667C45.74 76.0055 46.1075 73.4515 45.446 71.5115C44.8581 69.817 43.5106 68.6505 41.4037 68.012C40.5339 67.7419 40.24 67.7296 35.5606 67.6805L30.624 67.6436V87.302ZM39.75 71.5851C40.6197 72.0026 41.0362 72.813 41.0362 74.0654C41.0362 75.2319 40.6442 75.9441 39.75 76.4107C39.3335 76.6317 38.9782 76.6685 37.3368 76.7177L35.4014 76.7668V71.3396H37.3246C38.9905 71.3396 39.309 71.3764 39.75 71.5851Z" fill="black"/>
<path d="M48.6309 87.302L50.9951 87.2774L53.347 87.2406L53.3838 83.7657L53.4083 80.3031H55.8582L57.5976 83.7657L59.3493 87.2406L61.8973 87.2774C63.2937 87.2897 64.4329 87.2651 64.4329 87.2037C64.4329 87.1423 63.5265 85.3373 62.4117 83.1763C61.297 81.0275 60.3906 79.2348 60.3906 79.198C60.3906 79.1611 60.6723 78.977 61.0153 78.7682C62.277 78.0192 63.159 76.8527 63.5265 75.4529C63.747 74.6671 63.747 72.6779 63.5265 71.8921C62.9752 69.8047 61.3215 68.4172 58.7614 67.8892C57.7691 67.6928 57.0709 67.6559 53.1388 67.6559H48.6309V87.302ZM57.6344 71.5729C58.6389 72.0272 59.1288 73.0095 59.0063 74.311C58.9206 75.3302 58.5164 75.9932 57.7569 76.3738C57.2179 76.644 56.9607 76.6808 55.2825 76.7177L53.4083 76.7668V71.3396H55.2825C56.8259 71.3396 57.2302 71.3887 57.6344 71.5729Z" fill="black"/>
<path d="M66.638 87.302H80.1125V83.6183H71.2928V78.9524H78.7651V75.3915H71.2928V71.3396H80.1125V67.6559H66.638V87.302Z" fill="black"/>
<path d="M81.3374 71.3396H87.0947V87.302H91.7496V71.3396H97.6294V67.6559H81.3374V71.3396Z" fill="black"/>
<path d="M99.712 87.302H113.187V83.6183H104.367V78.9524H111.851L111.778 75.4529L108.078 75.4161L104.367 75.3915V71.3396H113.187V67.6559H99.712V87.302Z" fill="black"/>
<path d="M115.048 77.4421L115.085 87.2406L117.449 87.2774L119.801 87.302V80.3031H122.312L124.064 83.8025L125.803 87.302H128.315C130.238 87.302 130.826 87.2651 130.826 87.1423C130.826 87.0687 129.907 85.2268 128.805 83.0658C127.69 80.9047 126.832 79.1243 126.894 79.0997C127.261 78.9769 128.498 78.0683 128.854 77.6631C130.275 76.03 130.605 72.9726 129.601 70.8852C128.952 69.5591 127.482 68.4786 125.62 67.9383C124.995 67.7664 124.138 67.7296 119.948 67.6805L115.024 67.6436L115.048 77.4421ZM124.187 71.5974C125.007 72.0026 125.362 72.6411 125.424 73.8076C125.473 74.9372 125.203 75.674 124.554 76.1774C124.003 76.5949 123.17 76.7422 121.32 76.7422H119.801V71.3396H121.724C123.427 71.3396 123.709 71.3641 124.187 71.5974Z" fill="black"/>
<path d="M133.398 87.302H138.053V67.6559H133.398V87.302Z" fill="black"/>
<path d="M147.204 67.8278C146.885 68.6628 140.209 86.9213 140.172 87.0809C140.111 87.2897 140.283 87.302 142.61 87.302H145.121L145.672 85.4847L146.236 83.6797L149.482 83.6429L152.728 83.6183L153.181 85.0549C153.426 85.8531 153.684 86.688 153.745 86.8968L153.88 87.302H156.379C157.751 87.302 158.878 87.2651 158.878 87.2037C158.878 87.1546 157.261 82.7343 155.301 77.393L151.711 67.6559H149.494C147.694 67.6559 147.253 67.6928 147.204 67.8278ZM150.56 76.6071C151.099 78.3753 151.528 79.8487 151.491 79.8856C151.466 79.9101 150.536 79.9224 149.421 79.9101L147.412 79.8733L148.416 76.6194C148.98 74.8267 149.433 73.341 149.433 73.3164C149.47 73.1323 149.666 73.7339 150.56 76.6071Z" fill="black"/>
<path d="M0.0244992 101.139L0.0612481 110.938H4.7161L4.75285 106.861L4.77735 102.772H11.7596V110.999L14.0626 110.975L16.3532 110.938L16.39 101.139L16.4145 91.3532H11.7596V99.0889H4.77735V91.3532H0L0.0244992 101.139Z" fill="black"/>
<path d="M19.3789 101.14L19.4156 110.939H32.8902L32.9637 107.316H24.1317V102.65L27.8434 102.626L31.5428 102.589V99.1509L27.8434 99.1141L24.1317 99.0896V94.9148H32.9515V91.3539H19.3544L19.3789 101.14Z" fill="black"/>
<path d="M34.8134 101.14L34.8502 110.939H39.505L39.5418 107.476L39.5663 104.001H42.0774L43.8291 107.501L45.5686 111H48.0798C49.9417 111 50.5909 110.963 50.5909 110.853C50.5909 110.779 49.6845 108.949 48.5697 106.788C47.4428 104.627 46.5486 102.859 46.5731 102.835C46.5976 102.822 46.916 102.614 47.2835 102.38C48.9127 101.324 49.6967 100.01 49.905 97.9231C50.1622 95.3937 49.0475 93.2817 46.867 92.2135C45.2501 91.4276 44.6376 91.354 39.3825 91.354H34.7889L34.8134 101.14ZM43.8781 95.2463C44.2579 95.4182 44.5641 95.6761 44.7969 96.0322C45.1031 96.4988 45.1399 96.6584 45.1399 97.6038C45.1399 98.8808 44.9071 99.4457 44.1844 99.9245C43.7066 100.244 43.6209 100.256 41.6242 100.293L39.5663 100.33V94.8902L41.4405 94.9394C43.0084 94.9762 43.3882 95.0253 43.8781 95.2463Z" fill="black"/>
<path d="M52.7959 111H57.4507V104.885C57.463 99.5562 57.4752 98.8072 57.6345 99.0159C57.7325 99.1387 59.2514 101.791 61.0154 104.91C62.7793 108.029 64.3105 110.668 64.4085 110.779C64.5677 110.975 64.8495 111 66.8462 111H69.0879V91.354H64.433L64.4085 97.3828L64.3717 103.412L57.5365 91.354H52.7959V111Z" fill="black"/>
<path d="M77.9198 91.6241C77.0378 93.957 70.9252 110.779 70.9252 110.877C70.9252 110.963 71.7215 111 73.3997 110.975L75.8741 110.939L77.001 107.378L80.2594 107.341C83.2974 107.316 83.5301 107.329 83.5913 107.525C83.6158 107.648 83.8731 108.483 84.1548 109.367L84.6571 111H87.1682C89.2874 111 89.6794 110.975 89.6427 110.828C89.6182 110.73 88.0135 106.309 86.0535 101.005L82.5011 91.354H80.2594C78.0545 91.354 78.0178 91.354 77.9198 91.6241ZM81.3252 100.268C81.8764 102.024 82.3174 103.498 82.3174 103.547C82.3174 103.596 81.3742 103.633 80.2227 103.633C78.471 103.633 78.1403 103.608 78.1893 103.461C78.226 103.363 78.6547 102 79.1325 100.428C80.0879 97.3214 80.2227 96.9408 80.2839 97.0145C80.3084 97.039 80.7862 98.5002 81.3252 100.268Z" fill="black"/>
<path d="M91.1617 101.14L91.1985 110.939H95.8533L95.9758 98.9054L99.2097 104.615C100.986 107.758 102.554 110.472 102.676 110.668L102.921 111L105.2 110.975L107.49 110.939L107.527 101.14L107.552 91.354H102.774L102.75 97.3705L102.713 103.387L95.9268 91.4154L93.5381 91.3785L91.1372 91.354L91.1617 101.14Z" fill="black"/>
<path d="M110.492 111.037L114.387 110.963C117.805 110.914 118.38 110.877 119.226 110.644C122.288 109.833 124.505 107.697 125.412 104.713C125.963 102.945 126.036 100.268 125.595 98.2914C125.007 95.5901 123.317 93.4045 120.965 92.2748C119.201 91.4276 118.674 91.3539 114.301 91.3539H110.492V111.037ZM118.344 95.2217C118.662 95.3323 119.14 95.6147 119.422 95.848C120.585 96.8548 121.026 98.3037 121.026 101.103C121.026 103.878 120.647 105.217 119.593 106.236C118.821 106.985 118.111 107.23 116.592 107.292L115.269 107.341V94.8779L116.531 94.9516C117.217 94.9885 118.037 95.1112 118.344 95.2217Z" fill="black"/>
<path d="M128.278 101.14L128.315 110.939H141.789L141.863 107.316H133.031V102.65L136.743 102.626L140.442 102.589V99.1509L136.743 99.1141L133.031 99.0896V94.9148H141.851V91.3539H128.254L128.278 101.14Z" fill="black"/>
<path d="M143.075 94.9148H147.743C150.744 94.9148 152.385 94.9639 152.361 95.0376C152.348 95.099 150.241 98.1686 147.694 101.84L143.063 108.532L143.137 110.939H158.326L158.4 107.316H153.733C151.172 107.316 149.078 107.292 149.078 107.255C149.078 107.23 151.148 104.173 153.671 100.477L158.265 93.7606V91.3539H143.075V94.9148Z" fill="black"/>
</g>
<defs>
<clipPath id="clip0">
<rect width="159" height="111" fill="white"/>
</clipPath>
</defs>
</svg>
